<svg xmlns="http://www.w3.org/2000/svg" viewBox="0 0 800 1000" preserveAspectRatio="xMidYMid slice">
  <defs>
    <pattern id="p" width="40" height="40" patternUnits="userSpaceOnUse">
      <rect width="40" height="40" fill="#1F3A2D"/>
      <circle cx="20" cy="20" r="1.2" fill="#F5EFE3" fill-opacity="0.08"/>
    </pattern>
  </defs>
  <rect width="800" height="1000" fill="url(#p)"/>
  <g fill="none" stroke="#F5EFE3" stroke-opacity="0.6" stroke-width="1.5" stroke-linecap="round" transform="translate(400 440)">
    <path d="M0 -40v80"/>
    <path d="M0 -20c-18-3-32-8-40-18"/>
    <path d="M0 0c-22-3-38-10-48-20"/>
    <path d="M0 20c-18-3-32-7-40-15"/>
    <path d="M0 -20c18-3 32-8 40-18"/>
    <path d="M0 0c22-3 38-10 48-20"/>
    <path d="M0 20c18-3 32-7 40-15"/>
  </g>
  <text x="400" y="540" text-anchor="middle" font-family="'Cormorant Garamond', Georgia, serif" font-size="44" fill="#F5EFE3" letter-spacing="6">IDLE</text>
  <text x="400" y="582" text-anchor="middle" font-family="'Cormorant Garamond', Georgia, serif" font-size="44" fill="#F5EFE3" letter-spacing="6">GREENGROCERS</text>
  <text x="400" y="630" text-anchor="middle" font-family="Inter, sans-serif" font-size="14" fill="#F5EFE3" fill-opacity="0.7" letter-spacing="3.5">IMAGE COMING SOON</text>
</svg>
